<svg width="40" height="40" viewBox="0 0 40 40" fill="none" xmlns="http://www.w3.org/2000/svg">
<path d="M20 40C8.95375 40 0 31.0462 0 20C0 8.95375 8.95375 0 20 0C31.0462 0 40 8.95375 40 20C40 31.0462 31.0462 40 20 40ZM15.145 18.005L20 13.15L24.8575 18.0075L27.6825 15.1825L20 7.5L12.32 15.18L15.145 18.005ZM7.5 20L10.325 22.825L13.15 20L10.325 17.175L7.5 20ZM15.145 21.995L12.3162 24.8162L12.32 24.82L20 32.5L27.6825 24.8175V24.8162L24.8575 21.9913L20 26.85L15.145 21.995ZM26.85 20L29.675 22.825L32.5 20L29.675 17.175L26.85 20ZM22.865 19.9975H22.8662L20 17.1325L17.8813 19.25L17.6375 19.4937L17.1362 19.9963L17.1313 20L17.1362 20.0037L19.9987 22.8675L22.8662 20.0012L22.8675 20L22.865 19.9987V19.9975Z" fill="#E9B30C"/>
</svg>
